# AST/ASF file generated using VICON BodyLanguage
# -----------------------------------------------
:version 1.10
:name VICON
:units
  mass 1.0
  length 0.45
  angle deg
:documentation
   .ast/.asf automatically generated from VICON data using
   VICON BodyBuilder and BodyLanguage model FoxedUp or BRILLIANT.MOD
:root
   order TX TY TZ RX RY RZ
   axis XYZ
   position 0 0 0  
   orientation 0 0 0 
:bonedata
  begin
     id 1 
     name lhipjoint
     direction 0.578396 -0.714046 0.394458 
     length 2.21935 
     axis 0 0 0  XYZ
  end
  begin
     id 2 
     name lfemur
     direction 0.34202 -0.939693 0  
     length 6.39105  
     axis 0 0 20  XYZ
    dof rx ry rz
    limits (-160.0 20.0)
           (-70.0 70.0)
           (-60.0 70.0)
  end
  begin
     id 3 
     name ltibia
     direction 0.34202 -0.939693 0   
     length 6.99037   
     axis 0 0 20   XYZ
    dof rx
    limits (-10.0 170.0)
  end
  begin
     id 4 
     name lfoot
     direction 0.0582372 -0.160005 0.985397   
     length 2.06111   
     axis -90 7.62852e-016 20   XYZ
    dof rx rz
    limits (-45.0 90.0)
           (-70.0 20.0)
  end
  begin
     id 5 
     name ltoes
     direction 1.53556e-011 -4.21875e-011 1   
     length 1.04074   
     axis -90 7.62852e-016 20   XYZ
    dof rx
    limits (-90.0 20.0)
  end
  begin
     id 6 
     name rhipjoint
     direction -0.558179 -0.726269 0.40121   
     length 2.182  
     axis 0 0 0  XYZ 
  end
  begin
     id 7 
     name rfemur
     direction -0.34202 -0.939693 0   
     length 6.51172   
     axis 0 0 -20   XYZ
    dof rx ry rz
    limits (-160.0 20.0)
           (-70.0 70.0)
           (-70.0 60.0)
  end
  begin
     id 8 
     name rtibia
     direction -0.34202 -0.939693 0   
     length 7.02607   
     axis 0 0 -20   XYZ
    dof rx
    limits (-10.0 170.0)
 end
 begin
     id 9 
     name rfoot
     direction -0.0788856 -0.216737 0.973038   
     length 1.96734  
     axis -90 -7.62852e-016 -20   XYZ
    dof rx rz
    limits (-45.0 90.0)
           (-20.0 70.0)
  end
  begin
     id 10 
     name rtoes
     direction -1.53567e-011 -4.21783e-011 1   
     length 0.990825   
     axis -90 -7.62852e-016 -20   XYZ
    dof rx
    limits (-90.0 20.0)
  end
  begin
     id 11 
     name lowerback
     direction 0.00668177 0.999323 -0.0361741   
     length 1.7655   
     axis 0 0 0   XYZ
    dof rx ry rz
    limits (-20.0 45.0)
           (-30.0 30.0)
           (-30.0 30.0)
  end
  begin
     id 12 
     name upperback
     direction -0.00222086 0.99851 0.0545167   
     length 1.74912   
     axis 0 0 0   XYZ
    dof rx ry rz
    limits (-20.0 45.0)
           (-30.0 30.0)
           (-30.0 30.0)
  end
  begin
     id 13 
     name thorax
     direction -0.00733971 0.997496 0.0703443   
     length 1.75715   
     axis 0 0 0   XYZ
    dof rx ry rz
    limits (-20.0 45.0)
           (-30.0 30.0)
           (-30.0 30.0)
  end
  begin
     id 14 
     name lowerneck
     direction 0.0279797 0.994795 0.0979765   
     length 1.46939   
     axis 0 0 0   XYZ
    dof rx ry rz
    limits (-20.0 45.0)
           (-30.0 30.0)
           (-30.0 30.0)
  end
  begin
     id 15 
     name upperneck
     direction 0.00339187 0.976776 -0.214238   
     length 1.48018   
     axis 0 0 0   XYZ
    dof rx ry rz
    limits (-20.0 45.0)
           (-30.0 30.0)
           (-30.0 30.0)
  end
  begin
     id 16
     name head
     direction -0.00263506 0.996603 -0.0823096  
     length 1.4976  
     axis 0 0 0   XYZ
    dof rx ry rz
    limits (-20.0 45.0)
           (-30.0 30.0)
           (-30.0 30.0)
  end
  begin
     id 17 
     name lclavicle
     direction 0.894044 0.44508 -0.0508781  
     length 3.03024  
     axis 0 0 0   XYZ
    dof ry rz
    limits (-20.0 10.0)
           (0.0 20.0)
  end
  begin
     id 18 
     name lhumerus
     direction 1 -4.48961e-011 -2.39475e-018   
     length 4.4661   
     axis 180 -30 -90   XYZ
    dof rx ry rz
    limits (-60.0 90.0)
           (-90.0 90.0)
           (-90.0 90.0)
  end
  begin
     id 19
     name lradius
     direction 1 -4.48961e-011 9.29328e-028   
     length 3.41414   
     axis 180 -30 -90   XYZ
    dof rx
    limits (-10.0 170.0)
  end
  begin
     id 20
     name lwrist
     direction 1 -4.48985e-011 1.53461e-026   
     length 1.70707   
     axis -1.09697e-014 90 90   XYZ
    dof ry
    limits (-180.0 0.0)
 end
  begin
     id 21 
     name lhand
     direction 1 -4.48966e-011 3.06923e-026   
     length 0.328298   
     axis -1.95843e-014 90 90   XYZ
    dof rx rz
    limits (-90.0 90.0)
           (-45.0 45.0)
  end
  begin
     id 22 
     name lfingers
     direction 1 -4.48893e-011 6.13845e-026   
     length 0.264682   
     axis -3.91686e-014 90 90   XYZ
    dof rx
    limits (0.0 90.0)
  end
  begin
     id 23
     name lthumb
     direction 0.707107 -6.34876e-011 0.707107   
     length 0.380032   
     axis -90 45 2.85299e-015   XYZ
    dof rx rz
    limits (-45.0 45.0)
           (-45.0 45.0)
  end
  begin
     id 24 
     name rclavicle
     direction -0.936955 0.347862 -0.0332887   
     length 3.26927  
     axis 0 0 0   XYZ 
    dof ry rz
    limits (-10.0 20.0)
           (-20.0 0.0)
  end
  begin
     id 25 
     name rhumerus
     direction -1 -4.4896e-011 1.78637e-018  
     length 4.40431   
     axis 180 30 90   XYZ
    dof rx ry rz
    limits (-90.0 60.0)
           (-90.0 90.0)
           (-90.0 90.0)
  end
  begin
     id 26 
     name rradius
     direction -1 -4.48955e-011 9.34036e-027   
     length 3.04688   
     axis 180 30 90   XYZ
    dof rx
    limits (-10.0 170.0)
  end
  begin
     id 27 
     name rwrist
     direction -1 -4.49011e-011 1.53461e-026   
     length 1.52344   
     axis -1.09697e-014 -90 -90   XYZ
    dof ry
    limits (-180.0 0.0)
  end
  begin
     id 28
     name rhand
     direction -1 -4.48834e-011 3.06923e-026   
     length 0.500489   
     axis -1.95843e-014 -90 -90   XYZ
    dof rx rz
    limits (-90.0 90.0)
           (-45.0 45.0)
  end
  begin
     id 29
     name rfingers
     direction -1 -4.48967e-011 6.13845e-026   
     length 0.403507   
     axis -3.91686e-014 -90 -90   XYZ
    dof rx
    limits (0.0 90.0)
  end
  begin
     id 30
     name rthumb
     direction -0.707107 -6.34826e-011 0.707107   
     length 0.579358   
     axis -90 -45 -2.85299e-015   XYZ
    dof rx rz
    limits (-45.0 45.0)
           (-45.0 45.0)
  end
:hierarchy
  begin
    root lhipjoint rhipjoint lowerback
    lhipjoint lfemur
    lfemur ltibia
    ltibia lfoot
    lfoot ltoes
    rhipjoint rfemur
    rfemur rtibia
    rtibia rfoot
    rfoot rtoes
    lowerback upperback
    upperback thorax
    thorax lowerneck lclavicle rclavicle
    lowerneck upperneck
    upperneck head
    lclavicle lhumerus
    lhumerus lradius
    lradius lwrist
    lwrist lhand lthumb
    lhand lfingers
    rclavicle rhumerus
    rhumerus rradius
    rradius rwrist
    rwrist rhand rthumb
    rhand rfingers
  end

#!OML:ASF H:\IndianDance\Patient Classification 1\Patient 1\Session 1\dancer.ASF
:FULLY-SPECIFIED
:DEGREES
1
root 8.10005 12.2714 1.87369 86.7417 -84.3598 -84.0786
lowerback 6.99896 0.645234 0.0723303
upperback -5.29844 0.877909 0.630295
thorax -9.56863 0.423812 0.500783
lowerneck -17.6827 -4.67409 -1.71451
upperneck 23.7147 -6.94883 2.13649
head 10.6895 -3.18239 0.0321065
rclavicle 3.77691e-015 8.74653e-015
rhumerus -9.76306 31.4035 -12.0443
rradius 30.872
rwrist -11.2765
rhand -3.35134 9.14595
rfingers 7.12502
rthumb 22.3767 -19.5781
lclavicle 3.77691e-015 8.74653e-015
lhumerus -2.35795 -34.4516 -2.40536
lradius 32.2368
lwrist 12.0426
lhand -0.962907 8.65114
lfingers 7.12502
lthumb 24.6678 37.0812
rfemur -42.4769 -48.0427 16.3188
rtibia 89.0827
rfoot -34.5374 -4.34552
rtoes -5.221
lfemur -42.3026 45.3817 -7.20809
ltibia 91.879
lfoot -35.4429 -2.68267
ltoes 1.6182
2
root 8.1018 12.2724 1.87691 86.419 -84.3448 -83.712
lowerback 7.02492 0.668897 0.111369
upperback -5.30467 0.915003 0.637741
thorax -9.59078 0.439465 0.480879
lowerneck -17.8312 -4.5435 -1.53413
upperneck 23.887 -6.80464 2.05576
head 10.7682 -3.10648 -0.0112178
rclavicle -1.43622e-014 -8.74653e-015
rhumerus -9.87238 31.2526 -12.1406
rradius 30.9395
rwrist -11.4634
rhand -3.39918 9.10609
rfingers 7.12502
rthumb 22.3308 -19.6234
lclavicle -1.43622e-014 -8.74653e-015
lhumerus -2.32169 -34.448 -2.36766
lradius 32.2377
lwrist 11.922
lhand -1.10232 8.63257
lfingers 7.12502
lthumb 24.5341 37.0808
rfemur -42.5329 -48.0083 16.3679
rtibia 89.0613
rfoot -34.5323 -4.35463
rtoes -5.19094
lfemur -42.4045 45.2412 -7.29767
ltibia 91.8861
lfoot -35.4559 -2.58461
ltoes 1.66661
3
root 8.10265 12.2736 1.88023 85.8256 -84.3313 -83.0787
lowerback 7.04976 0.67575 0.137687
upperback -5.30436 0.928904 0.654232
thorax -9.60523 0.445118 0.481284
lowerneck -17.9306 -4.48461 -1.49901
upperneck 24.0286 -6.75795 2.11623
head 10.8401 -3.07216 0.00681935
rclavicle 1.06847e-014 7.15625e-015
rhumerus -9.88864 31.0234 -12.1943
rradius 30.9056
rwrist -11.5199
rhand -3.55275 9.22847
rfingers 7.12502
rthumb 22.1834 -19.5187
lclavicle 1.06847e-014 7.15625e-015
lhumerus -2.34591 -34.428 -2.30404
lradius 32.2653
lwrist 11.8679
lhand -1.12744 8.56213
lfingers 7.12502
lthumb 24.5101 37.0136
rfemur -42.5705 -48.0071 16.3974
rtibia 89.0341
rfoot -34.5197 -4.3677
rtoes -5.13776
lfemur -42.5154 45.0922 -7.40358
ltibia 91.8835
lfoot -35.4716 -2.42638
ltoes 1.45026
4
root 8.10363 12.2751 1.88385 85.466 -84.3209 -82.6598
lowerback 7.04912 0.699168 0.162874
upperback -5.33129 0.964267 0.671542
thorax -9.63476 0.460953 0.480151
lowerneck -17.949 -4.4418 -1.55568
upperneck 24.1808 -6.73063 2.24838
head 10.9074 -3.04807 0.0645572
rclavicle 8.79622e-015 -3.97569e-015
rhumerus -9.9453 30.8507 -12.2372
rradius 30.8836
rwrist -11.4959
rhand -3.55689 9.2757
rfingers 7.12502
rthumb 22.1794 -19.4719
lclavicle 8.79622e-015 -3.97569e-015
lhumerus -2.28471 -34.5249 -2.26546
lradius 32.2533
lwrist 11.9188
lhand -1.11286 8.59628
lfingers 7.12502
lthumb 24.524 37.0459
rfemur -42.6458 -47.9821 16.4522
rtibia 89.0075
rfoot -34.508 -4.38773
rtoes -5.15853
lfemur -42.6468 44.9497 -7.52385
ltibia 91.8772
lfoot -35.4831 -2.31025
ltoes 1.49057
5
root 8.10379 12.2769 1.88777 84.966 -84.3346 -82.1129
lowerback 7.02985 0.71145 0.166024
upperback -5.33848 0.981376 0.677844
thorax -9.63144 0.469199 0.482681
lowerneck -17.8926 -4.39661 -1.45208
upperneck 24.2716 -6.70705 2.24336
head 10.9257 -3.02994 0.0491947
rclavicle 9.93923e-017 -4.77083e-015
rhumerus -9.9448 30.7196 -12.2623
rradius 30.8276
rwrist -11.4234
rhand -3.57048 9.22295
rfingers 7.12502
rthumb 22.1664 -19.5262
lclavicle 9.93923e-017 -4.77083e-015
lhumerus -2.31279 -34.4232 -2.19232
lradius 32.3353
lwrist 11.7821
lhand -1.10208 8.50969
lfingers 7.12502
lthumb 24.5344 36.9579
rfemur -42.6951 -47.9713 16.4649
rtibia 88.9754
rfoot -34.5008 -4.45157
rtoes -5.06425
lfemur -42.7216 44.7852 -7.6565
ltibia 91.8455
lfoot -35.5318 -2.21625
ltoes 1.60492
6
root 8.10421 12.2792 1.8915 84.5391 -84.3364 -81.6378
lowerback 7.02776 0.728483 0.178855
upperback -5.35074 1.0063 0.686648
thorax -9.6439 0.480637 0.481053
lowerneck -17.8912 -4.343 -1.41354
upperneck 24.381 -6.66851 2.29825
head 10.9663 -3.00208 0.0666293
rclavicle -1.44119e-015 3.97569e-015
rhumerus -9.97063 30.5314 -12.3062
rradius 30.7765
rwrist -11.3631
rhand -3.61283 9.24346
rfingers 7.12502
rthumb 22.1257 -19.5105
lclavicle -1.44119e-015 3.97569e-015
lhumerus -2.30986 -34.4011 -2.14263
lradius 32.392
lwrist 11.7325
lhand -1.0938 8.47193
lfingers 7.12502
lthumb 24.5423 36.9191
rfemur -42.7457 -47.952 16.4955
rtibia 88.9377
rfoot -34.4909 -4.50415
rtoes -5.0271
lfemur -42.8068 44.6377 -7.77375
ltibia 91.8141
lfoot -35.5602 -2.1131
ltoes 1.63523
7
root 8.10437 12.282 1.89533 84.1181 -84.3407 -81.1687
lowerback 7.02334 0.745658 0.188683
upperback -5.36368 1.03087 0.693519
thorax -9.65572 0.492024 0.47913
lowerneck -17.8733 -4.2943 -1.38395
upperneck 24.4772 -6.63643 2.36265
head 10.9997 -2.97721 0.0886129
rclavicle 1.07344e-014 -2.38542e-015
rhumerus -9.99143 30.3313 -12.3489
rradius 30.7115
rwrist -11.2737
rhand -3.66146 9.26637
rfingers 7.12502
rthumb 22.079 -19.4931
lclavicle 1.07344e-014 -2.38542e-015
lhumerus -2.30935 -34.3783 -2.09795
lradius 32.4637
lwrist 11.7006
lhand -1.07407 8.44161
lfingers 7.12502
lthumb 24.5612 36.8862
rfemur -42.7917 -47.9304 16.5237
rtibia 88.8927
rfoot -34.4804 -4.56874
rtoes -4.99614
lfemur -42.8817 44.4934 -7.89136
ltibia 91.7712
lfoot -35.5912 -2.01581
ltoes 1.6701
8
root 8.10447 12.2854 1.89923 83.6944 -84.3453 -80.6961
lowerback 7.0172 0.76275 0.197855
upperback -5.37672 1.05509 0.698583
thorax -9.6666 0.503209 0.475721
lowerneck -17.8488 -4.24606 -1.35393
upperneck 24.5638 -6.60472 2.42763
head 11.0283 -2.95255 0.111018
rclavicle 8.74653e-015 2.38542e-015
rhumerus -10.0117 30.1066 -12.3951
rradius 30.6378
rwrist -11.1639
rhand -3.71658 9.29025
rfingers 7.12502
rthumb 22.0261 -19.4755
lclavicle 8.74653e-015 2.38542e-015
lhumerus -2.3088 -34.3554 -2.05913
lradius 32.546
lwrist 11.6843
lhand -1.06012 8.41584
lfingers 7.12502
lthumb 24.5746 36.8586
rfemur -42.8359 -47.9051 16.5537
rtibia 88.8417
rfoot -34.4691 -4.64453
rtoes -4.97653
lfemur -42.9514 44.3526 -8.00892
ltibia 91.7217
lfoot -35.6244 -1.92484
ltoes 1.71517
9
root 8.10447 12.2892 1.90322 83.2371 -84.3532 -80.1898
lowerback 7.00897 0.779107 0.203538
upperback -5.3872 1.07776 0.701292
thorax -9.67341 0.513815 0.472031
lowerneck -17.8283 -4.1974 -1.31858
upperneck 24.6435 -6.57151 2.48634
head 11.0547 -2.92737 0.130573
rclavicle 1.68967e-015 4.77083e-015
rhumerus -10.0331 29.8599 -12.4438
rradius 30.5642
rwrist -11.0643
rhand -3.78848 9.31462
rfingers 7.12502
rthumb 21.9571 -19.4592
lclavicle 1.68967e-015 4.77083e-015
lhumerus -2.31032 -34.3276 -2.02239
lradius 32.6347
lwrist 11.6842
lhand -1.0533 8.39274
lfingers 7.12502
lthumb 24.5811 36.8346
rfemur -42.8755 -47.8785 16.5783
rtibia 88.7853
rfoot -34.4571 -4.72576
rtoes -4.9621
lfemur -43.0176 44.2144 -8.13203
ltibia 91.6648
lfoot -35.6569 -1.8301
ltoes 1.74273
10
root 8.10447 12.2934 1.90732 82.7552 -84.3636 -79.6588
lowerback 6.99817 0.795105 0.207313
upperback -5.39476 1.09963 0.702576
thorax -9.67547 0.524143 0.468056
lowerneck -17.8151 -4.14819 -1.28725
upperneck 24.7194 -6.53593 2.54584
head 11.0812 -2.90117 0.151373
rclavicle -1.98785e-015 1.59028e-015
rhumerus -10.0566 29.5956 -12.4939
rradius 30.4963
rwrist -10.9942
rhand -3.86995 9.33196
rfingers 7.12502
rthumb 21.8788 -19.4511
lclavicle -1.98785e-015 1.59028e-015
lhumerus -2.30966 -34.2972 -1.98577
lradius 32.7211
lwrist 11.7055
lhand -1.05347 8.37922
lfingers 7.12502
lthumb 24.581 36.8211
rfemur -42.9122 -47.8497 16.5984
rtibia 88.7251
rfoot -34.4436 -4.80848
rtoes -4.9503
lfemur -43.0832 44.081 -8.2608
ltibia 91.6033
lfoot -35.686 -1.73279
ltoes 1.75741
